<svg width="342" height="345" viewBox="0 0 342 345" fill="none" xmlns="http://www.w3.org/2000/svg">
<path d="M84.3379 258.528C82.2139 258.05 80.3065 256.895 78.8994 255.243L78.625 254.906C77.2858 253.189 76.543 251.087 76.502 248.918L76.5029 248.482V241.614C86.2523 250.597 97.2838 258.209 109.294 264.143L84.3389 258.528H84.3379ZM257.497 258.528L232.838 264.076C244.729 258.186 255.659 250.65 265.332 241.767V248.482C265.385 250.659 264.729 252.791 263.47 254.558L263.21 254.906C261.871 256.623 260.013 257.856 257.919 258.424L257.497 258.528ZM113.434 137.177C140.583 143.286 159.872 167.397 159.872 195.226V253.645L97.5957 239.633V133.613L113.434 137.177ZM244.24 239.633L181.964 253.645V195.226C181.964 167.832 200.655 144.04 227.136 137.477L228.402 137.177L244.24 133.613V239.633ZM152.284 0.745117C108.514 6.61436 71.1731 32.7817 50.04 69.4648C34.696 65.7761 22.3031 61.3981 13.7402 56.5557C5.07007 51.6525 0.5 46.3764 0.5 41C0.5 35.6353 5.05026 30.3701 13.6846 25.4756C22.2792 20.6036 34.7491 16.2 50.2012 12.4951C76.9569 6.08 112.571 1.78238 152.284 0.745117ZM189.715 0.745117C229.428 1.78233 265.043 6.07995 291.799 12.4951C307.251 16.2 319.721 20.6036 328.315 25.4756C336.95 30.3701 341.5 35.6353 341.5 41C341.5 46.3765 336.929 51.6525 328.259 56.5557C319.696 61.3981 307.302 65.7761 291.958 69.4648C270.825 32.7819 233.485 6.61415 189.715 0.745117ZM266.332 119.804C266.325 118.249 265.99 116.713 265.35 115.298L265.217 115.017C264.536 113.618 263.567 112.38 262.376 111.383L262.135 111.187C260.853 110.15 259.354 109.415 257.751 109.033C256.246 108.675 254.682 108.636 253.163 108.92L252.86 108.981H252.856L170.917 127.412L88.9805 108.771H88.9795C87.4432 108.425 85.8515 108.41 84.3115 108.729L84.0039 108.797C82.4713 109.159 81.0344 109.845 79.79 110.807L79.543 111.003C78.3248 112.002 77.3355 113.249 76.6396 114.659L76.5049 114.943C75.8486 116.375 75.5062 117.93 75.5 119.503L75.5029 119.818V239.306C49.0123 214.077 32.5 178.469 32.5 139C32.5 114.125 39.0582 90.7837 50.5381 70.6074C58.3221 72.3481 66.7816 70.4756 75.7617 66.7373C84.8853 62.9393 94.6234 57.1834 104.824 51.2227C125.272 39.2744 147.6 26.5 171 26.5C194.4 26.5 216.728 39.2745 237.175 51.2227C247.376 57.1834 257.114 62.9393 266.237 66.7373C275.217 70.4755 283.676 72.3477 291.46 70.6074C302.94 90.7839 309.5 114.125 309.5 139C309.5 178.551 292.919 214.226 266.332 239.464V119.804Z" fill="url(#paint0_radial_319_13888)" stroke="#DCB590"/>
<path d="M8.71118 344.344V308H24.2145C31.1274 308 34.5839 310.906 34.5839 316.717C34.5839 321.445 31.2036 324.943 24.4432 327.214L36.9221 344.344H30.7208L19.1568 328.002V324.927C26.1037 323.825 29.5771 321.157 29.5771 316.921C29.5771 313.566 27.6455 311.889 23.7824 311.889H13.413V344.344H8.71118Z" fill="#8695A8"/>
<path d="M52.3999 317.658C59.9906 317.658 63.7859 321.411 63.7859 328.917C63.7859 330.882 62.0821 332.348 60.1163 332.348H44.8262C44.8262 337.804 48.0116 340.531 54.3823 340.531C57.4152 340.531 60.1092 340.193 62.4644 339.515V343.327C60.1092 344.005 57.2458 344.344 53.874 344.344C44.7076 344.344 40.1244 339.794 40.1244 330.696C40.1244 322.004 44.2162 317.658 52.3999 317.658ZM44.8262 328.434H50.9505C55.5113 328.434 59.5847 323.254 55.253 321.827C54.4289 321.555 53.4779 321.419 52.3999 321.419C47.6558 321.419 45.1312 323.757 44.8262 328.434Z" fill="#8695A8"/>
<path d="M68.8436 336.287C68.8436 330.814 72.4525 328.078 79.6704 328.078C81.9917 328.078 84.313 328.247 86.6342 328.586V326.07C86.6342 323.003 84.2367 321.47 79.4417 321.47C76.6969 321.47 73.8843 321.894 71.0039 322.741V318.929C73.8843 318.081 76.6969 317.658 79.4417 317.658C87.3713 317.658 91.336 320.42 91.336 325.943V344.344H88.6928L87.0663 341.701C84.4062 343.463 81.5088 344.344 78.3743 344.344C72.0205 344.344 68.8436 341.658 68.8436 336.287ZM79.6704 331.89C75.5871 331.89 73.5454 333.33 73.5454 336.211C73.5454 339.091 75.155 340.531 78.3743 340.531C81.6274 340.531 84.3807 339.667 86.6342 337.939V332.399C84.313 332.06 81.9917 331.89 79.6704 331.89Z" fill="#8695A8"/>
<path d="M116.904 323.097C115.006 322.182 112.837 321.724 110.397 321.724C105.026 321.724 102.341 324.579 102.341 330.289C102.341 337.05 105.026 340.43 110.397 340.43C112.837 340.43 115.006 340.099 116.904 339.439V323.097ZM121.606 342.743C118.369 343.81 114.379 344.344 109.635 344.344C101.688 344.344 97.7152 339.718 97.7152 330.467C97.7152 321.928 101.934 317.658 110.372 317.658C112.676 317.658 114.854 318.081 116.904 318.929V308H121.606V342.743Z" fill="#8695A8"/>
<path d="M139.396 308H143.946L149.054 339.617L158.588 310.261C159.025 308.913 160.281 308 161.699 308C163.091 308 164.33 308.881 164.788 310.196L175.028 339.617L180.798 308H185.144L178.307 344.344H171.902L161.635 313.896L151.697 344.344H145.369L139.396 308Z" fill="#8695A8"/>
<path d="M195.437 317.658V344.344H190.735V317.658H195.437ZM195.437 308V312.448H190.735V308H195.437Z" fill="#8695A8"/>
<path d="M203.595 313.337H206.543L207.56 317.658H214.778V321.47H208.297V336.795C208.297 339.286 209.373 340.531 211.525 340.531H214.778V344.344H210.305C205.832 344.344 203.595 341.946 203.595 337.151V313.337Z" fill="#8695A8"/>
<path d="M220.776 344.344V308H225.478V320.555C227.748 318.624 230.518 317.658 233.788 317.658C240.447 317.658 243.776 320.97 243.776 327.595V344.344H239.075V327.519C239.075 323.554 237.101 321.572 233.153 321.572C230.459 321.572 227.9 322.698 225.478 324.952V344.344H220.776Z" fill="#8695A8"/>
<path d="M264.642 344.344V311.614C264.642 309.618 266.261 308 268.257 308C269.69 308 270.988 308.847 271.565 310.159L283.958 338.32L296.148 310.083C296.693 308.819 297.938 308 299.315 308C301.221 308 302.765 309.545 302.765 311.45V344.344H298.572V314.532L285.661 344.344H281.95L268.836 314.532V344.344H264.642Z" fill="#8695A8"/>
<path d="M321.903 317.658C329.493 317.658 333.289 321.411 333.289 328.917C333.289 330.882 331.585 332.348 329.619 332.348H314.329C314.329 337.804 317.514 340.531 323.885 340.531C326.918 340.531 329.612 340.193 331.967 339.515V343.327C329.612 344.005 326.749 344.344 323.377 344.344C314.21 344.344 309.627 339.794 309.627 330.696C309.627 322.004 313.719 317.658 321.903 317.658ZM314.329 328.434H320.453C325.014 328.434 329.088 323.254 324.756 321.827C323.932 321.555 322.981 321.419 321.903 321.419C317.159 321.419 314.634 323.757 314.329 328.434Z" fill="#8695A8"/>
<defs>
<radialGradient id="paint0_radial_319_13888" cx="0" cy="0" r="1" gradientUnits="userSpaceOnUse" gradientTransform="translate(118.5 79.5) rotate(55.9228) scale(307.866 378.741)">
<stop stop-color="#E8E650"/>
<stop offset="0.461538" stop-color="#DDB38B"/>
<stop offset="1" stop-color="#CFCFCF"/>
</radialGradient>
</defs>
</svg>
