<svg width="184" height="45" viewBox="0 0 184 45" fill="none" xmlns="http://www.w3.org/2000/svg">
<path d="M12.5 40.0557C13.1955 40.6593 13.9269 41.2207 14.6914 41.7354L13.4121 41.4404C13.1844 41.3879 12.9759 41.2651 12.8154 41.0879L12.75 41.0088C12.6034 40.8161 12.5167 40.5817 12.502 40.3369L12.5 40.2324V40.0557ZM41.4736 40.2324C41.4794 40.4792 41.4122 40.7201 41.2832 40.9238L41.2236 41.0088C41.0772 41.2012 40.8796 41.3409 40.6582 41.4131L40.5625 41.4404L39.3213 41.7266C40.0714 41.2209 40.79 40.6706 41.4736 40.0791V40.2324ZM15.8311 22.1729C21.1267 23.6805 24.8223 28.528 24.8223 34.085V40.5303L15.8311 38.4561V22.1729ZM38.1436 38.4561L29.1523 40.5303V34.085C29.1523 28.5279 32.8476 23.6804 38.1436 22.1729V38.4561ZM19.6885 0.749023C14.6278 2.53467 10.3893 6.12165 7.69727 10.7578C5.43588 10.182 3.62882 9.51582 2.38184 8.79297C1.03271 8.01081 0.500016 7.2644 0.5 6.63672C0.5 6.01047 1.02985 5.26594 2.37305 4.48535C3.68029 3.72569 5.60529 3.02505 8.02734 2.42969C11.2124 1.64678 15.2092 1.05963 19.6885 0.749023ZM34.3105 0.749023C38.7902 1.05961 42.7873 1.64673 45.9727 2.42969C48.3947 3.02505 50.3197 3.72569 51.627 4.48535C52.9701 5.26594 53.5 6.01047 53.5 6.63672C53.5 7.26441 52.9673 8.01081 51.6182 8.79297C50.371 9.51591 48.5636 10.182 46.3018 10.7578C43.6096 6.1216 39.3714 2.53453 34.3105 0.749023ZM42.4736 19.3906C42.4725 19.1435 42.431 18.8985 42.3506 18.666L42.2568 18.4385C42.1164 18.1429 41.9122 17.8827 41.6592 17.6768H41.6602C41.4716 17.5203 41.2584 17.3976 41.0303 17.3135L40.7979 17.2422C40.5607 17.1843 40.3159 17.1673 40.0742 17.1924L39.834 17.2314L39.8301 17.2324L26.9863 20.1934L14.1455 17.1992L14.1445 17.1982L13.9004 17.1572C13.7367 17.139 13.5716 17.1393 13.4082 17.1592L13.1641 17.2041C12.9227 17.2626 12.6939 17.3625 12.4873 17.499L12.2881 17.6475C12.0974 17.8077 11.9358 17.9998 11.8096 18.2139L11.6953 18.4355C11.561 18.736 11.4949 19.0632 11.501 19.3926H11.5V37.7021C7.81742 33.7526 5.55273 28.3995 5.55273 22.5C5.55273 18.6536 6.51645 15.0406 8.20605 11.8965C9.46894 12.0912 10.7934 11.7579 12.1279 11.1885C13.6009 10.5599 15.1668 9.6099 16.7686 8.65039C20.0191 6.70314 23.4427 4.70898 27 4.70898C30.5572 4.70899 33.9809 6.70313 37.2314 8.65039C38.8331 9.60986 40.3982 10.5599 41.8711 11.1885C43.2055 11.7579 44.5302 12.0909 45.793 11.8965C47.4827 15.0407 48.4473 18.6535 48.4473 22.5C48.4473 28.4139 46.1721 33.7792 42.4736 37.7314V19.3906Z" fill="url(#paint0_radial_319_13884)" stroke="#DCB590"/>
<path d="M54 29.7459V15.2541H60.1818C62.9383 15.2541 64.3165 16.4128 64.3165 18.7301C64.3165 20.615 62.9687 22.0102 60.273 22.9155L65.2488 29.7459H62.7761L58.1651 23.2296V22.0034C60.9351 21.5643 62.3201 20.5002 62.3201 18.8112C62.3201 17.4735 61.5499 16.8046 60.0095 16.8046H55.8748V29.7459H54Z" fill="#8695A8"/>
<path d="M71.4205 19.1051C74.4472 19.1051 75.9606 20.6015 75.9606 23.5945C75.9606 24.3783 75.2812 24.9626 74.4973 24.9626H68.4005C68.4005 27.138 69.6707 28.2257 72.2109 28.2257C73.4203 28.2257 74.4945 28.0906 75.4336 27.8204V29.3405C74.4945 29.6107 73.3527 29.7459 72.0083 29.7459C68.3532 29.7459 66.5257 27.9319 66.5257 24.3039C66.5257 20.838 68.1573 19.1051 71.4205 19.1051ZM68.4005 23.4019H70.8425C72.6611 23.4019 74.2853 21.3366 72.5581 20.7673C72.2295 20.6591 71.8503 20.6049 71.4205 20.6049C69.5288 20.6049 68.5221 21.5373 68.4005 23.4019Z" fill="#8695A8"/>
<path d="M77.9772 26.5334C77.9772 24.3511 79.4163 23.26 82.2944 23.26C83.2199 23.26 84.1455 23.3276 85.0711 23.4627V22.4595C85.0711 21.2366 84.1151 20.6252 82.2032 20.6252C81.1087 20.6252 79.9872 20.7941 78.8386 21.1319V19.6118C79.9872 19.274 81.1087 19.1051 82.2032 19.1051C85.365 19.1051 86.9459 20.2063 86.9459 22.4088V29.7459H85.892L85.2434 28.6919C84.1827 29.3945 83.0274 29.7459 81.7775 29.7459C79.244 29.7459 77.9772 28.675 77.9772 26.5334ZM82.2944 24.7802C80.6661 24.7802 79.852 25.3544 79.852 26.503C79.852 27.6515 80.4939 28.2257 81.7775 28.2257C83.0747 28.2257 84.1725 27.8812 85.0711 27.1921V24.9828C84.1455 24.8477 83.2199 24.7802 82.2944 24.7802Z" fill="#8695A8"/>
<path d="M97.1408 21.2738C96.3841 20.9089 95.5193 20.7265 94.5465 20.7265C92.4048 20.7265 91.334 21.8649 91.334 24.1417C91.334 26.8374 92.4048 28.1852 94.5465 28.1852C95.5193 28.1852 96.3841 28.0535 97.1408 27.79V21.2738ZM99.0156 29.1074C97.7252 29.533 96.1341 29.7459 94.2424 29.7459C91.0739 29.7459 89.4896 27.9015 89.4896 24.2126C89.4896 20.8076 91.1718 19.1051 94.5363 19.1051C95.4552 19.1051 96.3233 19.274 97.1408 19.6118V15.2541H99.0156V29.1074Z" fill="#8695A8"/>
<path d="M106.109 15.2541H107.923L109.96 27.8609L113.762 16.1555C113.936 15.618 114.437 15.2541 115.002 15.2541C115.557 15.2541 116.052 15.6054 116.234 16.1296L120.317 27.8609L122.618 15.2541H124.351L121.625 29.7459H119.071L114.977 17.6052L111.014 29.7459H108.491L106.109 15.2541Z" fill="#8695A8"/>
<path d="M128.455 19.1051V29.7459H126.58V19.1051H128.455ZM128.455 15.2541V17.0276H126.58V15.2541H128.455Z" fill="#8695A8"/>
<path d="M131.708 17.3823H132.884L133.289 19.1051H136.167V20.6252H133.583V26.736C133.583 27.7292 134.012 28.2257 134.87 28.2257H136.167V29.7459H134.384C132.6 29.7459 131.708 28.7899 131.708 26.8779V17.3823Z" fill="#8695A8"/>
<path d="M138.559 29.7459V15.2541H140.434V20.2604C141.339 19.4902 142.444 19.1051 143.747 19.1051C146.403 19.1051 147.73 20.4259 147.73 23.0675V29.7459H145.855V23.0371C145.855 21.4562 145.068 20.6657 143.494 20.6657C142.42 20.6657 141.4 21.115 140.434 22.0136V29.7459H138.559Z" fill="#8695A8"/>
<path d="M156.05 29.7459V16.6953C156.05 15.8994 156.695 15.2541 157.491 15.2541C158.063 15.2541 158.58 15.5918 158.81 16.1148L163.752 27.3441L168.613 16.0846C168.83 15.5805 169.327 15.2541 169.876 15.2541C170.635 15.2541 171.251 15.87 171.251 16.6298V29.7459H169.579V17.8586L164.431 29.7459H162.952L157.722 17.8586V29.7459H156.05Z" fill="#8695A8"/>
<path d="M178.882 19.1051C181.909 19.1051 183.422 20.6015 183.422 23.5945C183.422 24.3783 182.743 24.9626 181.959 24.9626H175.862C175.862 27.138 177.132 28.2257 179.673 28.2257C180.882 28.2257 181.956 28.0906 182.895 27.8204V29.3405C181.956 29.6107 180.815 29.7459 179.47 29.7459C175.815 29.7459 173.988 27.9319 173.988 24.3039C173.988 20.838 175.619 19.1051 178.882 19.1051ZM175.862 23.4019H178.304C180.123 23.4019 181.747 21.3366 180.02 20.7673C179.691 20.6591 179.312 20.6049 178.882 20.6049C176.991 20.6049 175.984 21.5373 175.862 23.4019Z" fill="#8695A8"/>
<defs>
<radialGradient id="paint0_radial_319_13884" cx="0" cy="0" r="1" gradientUnits="userSpaceOnUse" gradientTransform="translate(18.7105 12.8687) rotate(56.581) scale(49.4534 60.262)">
<stop stop-color="#E8E650"/>
<stop offset="0.461538" stop-color="#DDB38B"/>
<stop offset="1" stop-color="#CFCFCF"/>
</radialGradient>
</defs>
</svg>
